<svg aria-hidden="true" style="position:absolute;width:0;height:0" xmlns="http://www.w3.org/2000/svg" overflow="hidden"><defs><symbol id="icon-alarm" viewBox="0 0 33 32"><path fill="var(--color1, #95e1d3)" d="M31.732 9.81a16.231 16.231 0 00-8.509-8.509A6.037 6.037 0 0126.969 0a6.063 6.063 0 016.063 6.063 6.031 6.031 0 01-1.301 3.746zm-.248 6.706c0 3.976-1.561 7.58-4.091 10.261l2.094 2.093a1.531 1.531 0 11-2.166 2.165l-2.248-2.248a14.891 14.891 0 01-8.557 2.697c-3.178 0-6.119-.997-8.543-2.687L5.74 31.03a1.549 1.549 0 01-2.19-2.189l2.077-2.077c-2.522-2.679-4.078-6.278-4.078-10.247 0-8.266 6.701-14.968 14.968-14.968S31.485 8.25 31.485 16.517zM16.516 4.645c-6.556 0-11.871 5.314-11.871 11.871 0 6.556 5.315 11.871 11.871 11.871s11.871-5.315 11.871-11.871c0-6.557-5.315-11.871-11.871-11.871zm6.194 13.42h-6.194a1.549 1.549 0 01-1.548-1.548V8.259a1.549 1.549 0 013.096 0v6.709h4.645a1.549 1.549 0 010 3.097zM1.329 10.018A6.156 6.156 0 010 6.193 6.194 6.194 0 016.194-.001c1.445 0 2.772.499 3.826 1.329a16.577 16.577 0 00-8.691 8.69z"/></symbol><symbol id="icon-book" viewBox="0 0 33 32"><path fill="var(--color1, #95e1d3)" d="M32.067 26.724l-14.938 6.181a1.528 1.528 0 01-1.226 0L.965 26.724A1.548 1.548 0 010 25.29V1.548A1.548 1.548 0 012.139.118h.001l.002.001.013.005 14.36 5.942L30.875.124l.013-.005.003-.001a1.548 1.548 0 012.139 1.43V25.29c0 .648-.399 1.204-.965 1.434zM14.968 8.777L3.097 3.864v20.39l11.871 4.913V8.777zm14.967-4.912L18.064 8.778v20.39l11.871-4.913V3.865zm-9.415 7.112l5.677-2.581a1.548 1.548 0 011.282 2.819l-5.677 2.581a1.549 1.549 0 01-1.282-2.819zm0 5.677l5.677-2.581a1.548 1.548 0 111.282 2.819l-5.677 2.581a1.547 1.547 0 01-2.189-1.409c0-.627.373-1.166.907-1.41zm0 5.678l5.677-2.581a1.548 1.548 0 011.282 2.819l-5.677 2.581a1.549 1.549 0 01-1.282-2.819zM6.194 8.258c.228 0 .445.05.641.138l5.677 2.581a1.549 1.549 0 01-1.282 2.819l-5.677-2.581a1.547 1.547 0 01.641-2.957zm0 5.677c.228 0 .445.05.641.138l5.677 2.581a1.549 1.549 0 01-1.282 2.819l-5.677-2.581a1.548 1.548 0 01.641-2.957zm0 5.678c.228 0 .445.05.641.138l5.677 2.581a1.549 1.549 0 01-1.282 2.819L5.553 22.57a1.547 1.547 0 01.641-2.957z"/></symbol><symbol id="icon-computer" viewBox="0 0 33 32"><path fill="var(--color1, #95e1d3)" d="M30.968 23.742h-9.806v2.58l2.065 2.066v.516H9.808v-.516l2.065-2.066v-2.58H2.067a1.549 1.549 0 01-1.548-1.549V1.549c0-.856.694-1.548 1.548-1.548H30.97c.855 0 1.548.693 1.548 1.548v20.644c0 .856-.694 1.549-1.548 1.549zm-.516-21.677H2.581v17.548h27.871V2.065zM13.419 9.29c.427 0 .814.173 1.095.453l.969.969 3.034-3.034a1.548 1.548 0 112.19 2.19l-4.129 4.129a1.547 1.547 0 01-2.19 0l-2.065-2.066a1.548 1.548 0 011.095-2.642z"/></symbol><symbol id="icon-facebook" viewBox="0 0 16 32"><path d="M14.879.245v5.072s-3.738-.373-4.674 1.06c-.512.783-.208 3.077-.254 4.724h4.959c-.418 1.925-.719 3.23-1.028 4.896H9.924v15.759h-6.87V16.059H.131v-4.958h2.891c.148-3.626.203-7.217 2.005-9.046C7.05-.002 8.981.246 14.879.246z"/></symbol><symbol id="icon-glass" viewBox="0 0 32 32"><path d="M30.786 26.636a2.933 2.933 0 11-4.149 4.148l-8.597-8.596a11.663 11.663 0 01-5.95 1.634C5.61 23.822.357 18.569.357 12.089S5.61.356 12.09.356s11.733 5.253 11.733 11.733c0 2.174-.603 4.204-1.634 5.95l8.597 8.597zM12.089 3.287c-4.86 0-8.8 3.941-8.8 8.802s3.94 8.8 8.8 8.8c4.86 0 8.8-3.94 8.8-8.8s-3.94-8.802-8.8-8.802z"/></symbol><symbol id="icon-home" viewBox="0 0 33 32"><path fill="var(--color1, #95e1d3)" d="M33.032 17.032c0 .855-.694 1.547-1.548 1.547-.408 0-.776-.16-1.053-.418l-.003.004L16.516 4.254 2.635 18.134a1.548 1.548 0 11-2.159-2.218L15.4.991a1.547 1.547 0 011.116-.475h.001c.027 0 .054 0 .082.002l.012.001.07.005.004.001c.379.041.716.219.963.483l.001-.001 6.092 6.092V5.677a1.547 1.547 0 113.096 0v4.519l5.779 5.779-.004.004c.258.277.419.645.419 1.053zm-3.097 2.581v10.839c0 .855-.694 1.548-1.548 1.548H25.29V19.613h-6.194V32H4.644a1.549 1.549 0 01-1.548-1.548V19.613L16.515 6.194l13.419 13.419zm-16 0H7.741v6.194h6.194v-6.194z"/></symbol><symbol id="icon-image" viewBox="0 0 32 32"><path fill="var(--color1, #95e1d3)" d="M30.5 32h-29A1.5 1.5 0 010 30.5v-29A1.5 1.5 0 011.5 0h29A1.5 1.5 0 0132 1.5v29a1.5 1.5 0 01-1.5 1.5zM29 3H3v26h26V3zM6.5 4.5H12a1.5 1.5 0 110 3H7.5V12a1.5 1.5 0 01-3 0V4.5h2zM4.5 20a1.5 1.5 0 113 0v4.499l4.5.001a1.5 1.5 0 110 3H4.5V20zM20 4.5h7.5V12a1.5 1.5 0 01-3 0V7.5H20a1.5 1.5 0 010-3zm0 20v-.001h4.5V20a1.5 1.5 0 113 0v7.5H20a1.5 1.5 0 010-3z"/></symbol><symbol id="icon-inline" viewBox="0 0 640 32"><path fill="var(--color2, #f38181)" d="M0 0h640v32H0V0z"/></symbol><symbol id="icon-instagram" viewBox="0 0 32 32"><path d="M27.938 31.754H4.307a3.939 3.939 0 01-3.938-3.94V4.184A3.94 3.94 0 014.307.244h23.631a3.939 3.939 0 013.938 3.94v23.63a3.94 3.94 0 01-3.938 3.94zM16.123 9.894a6.1 6.1 0 00-5.536 3.545h-.006c-.01.022-.017.046-.027.068-.058.129-.108.262-.158.395-.023.065-.049.128-.07.192a5.51 5.51 0 00-.117.418c-.017.065-.037.13-.052.197a6.11 6.11 0 00-.075.453c-.009.062-.021.122-.028.185a6.104 6.104 0 006.069 6.757 6.104 6.104 0 006.069-6.757c-.007-.063-.02-.123-.028-.185a6.11 6.11 0 00-.075-.453c-.015-.066-.034-.132-.052-.197a4.87 4.87 0 00-.117-.418c-.021-.064-.047-.127-.07-.192a6.132 6.132 0 00-.158-.395c-.01-.022-.017-.046-.027-.068h-.006a6.1 6.1 0 00-5.536-3.545zm12.209-4.529c0-.87-.705-1.574-1.575-1.574h-3.151c-.87 0-1.575.704-1.575 1.574v3.152c0 .87.705 1.575 1.575 1.575h3.151c.87 0 1.575-.705 1.575-1.575V5.365zm0 8.074h-2.905c.224.816.345 1.675.345 2.561 0 5.329-4.32 9.648-9.649 9.648S6.474 21.329 6.474 16c0-.886.121-1.745.345-2.561H3.914v13.194c0 .871.705 1.577 1.575 1.577h21.268c.87 0 1.575-.705 1.575-1.577V13.439z"/></symbol><symbol id="icon-line-graph" viewBox="0 0 33 32"><path fill="var(--color1, #95e1d3)" d="M31.484 33.032H1.549a1.549 1.549 0 01-1.548-1.548V1.547C.001.693.695 0 1.549 0h29.935c.855 0 1.548.694 1.548 1.547v29.937c0 .855-.694 1.548-1.548 1.548zM29.935 3.097H3.096v26.839h26.839V3.097zM5.383 16.763v-.002l4.129-2.579a1.547 1.547 0 011.677.036l.006-.008 6.845 4.563 7.884-5.565a1.549 1.549 0 111.82 2.504h.001l-8.775 6.194a1.535 1.535 0 01-.906.293c-.331 0-.638-.104-.889-.281l-6.872-4.581-3.236 2.023a1.549 1.549 0 11-1.684-2.597z"/></symbol><symbol id="icon-pinterest" viewBox="0 0 26 32"><path d="M11.14 20.743c-.257 1.025-.517 2.1-.785 3.151-.265 1.036-.498 2.087-.884 3.04-.639 1.577-1.45 3.1-2.514 4.334-.708.821-.558.494-.77.449-.162-.034-.176-.193-.208-.425-.174-1.253-.055-2.702.009-4.11.074-1.605.411-2.939.725-4.272.596-2.54 1.164-5.03 1.766-7.586.039-.17.148-.45.111-.548-.273-.71-.45-1.348-.528-2.094a6.66 6.66 0 01.171-2.391c.341-1.302 1.124-2.455 2.331-2.878.768-.266 1.618-.145 2.135.162.532.319.897.821 1.067 1.534.182.757.048 1.663-.098 2.327-.329 1.5-.761 2.626-1.153 4.074-.194.718-.415 1.455-.233 2.23a2.598 2.598 0 001.042 1.569c.524.382 1.145.59 2 .56 1.511-.053 2.561-1.019 3.263-1.93 1.124-1.458 1.803-3.426 2.062-5.767.082-.756.144-1.623.086-2.479-.108-1.58-.602-2.852-1.387-3.836-.746-.939-1.804-1.685-3.092-2.106-1.276-.416-3.042-.555-4.612-.287-2.853.489-4.864 2.11-6.049 4.348-.62 1.172-1.03 2.519-1.03 4.197 0 1.294.319 2.295.834 3.077.164.247.404.452.564.735.228.401-.034.998-.146 1.433-.135.523-.15 1.246-.761 1.258-.254.005-.571-.18-.785-.299-1.606-.887-2.581-2.502-2.981-4.596-.244-1.273-.242-2.756 0-3.985a11.36 11.36 0 011.153-3.177C3.445 4.605 4.913 3.126 6.7 2.07 8.074 1.258 9.623.688 11.509.413c.625-.091 1.273-.129 1.975-.162a11.87 11.87 0 015.324.997 10.884 10.884 0 013.668 2.641c1.031 1.126 1.782 2.436 2.257 4.073.249.852.49 1.762.49 2.815 0 1.056-.223 1.985-.379 2.914-.583 3.481-2.239 6.327-4.724 7.948a8.206 8.206 0 01-2.159.996c-.821.239-1.758.418-2.761.348-.974-.066-1.771-.331-2.441-.71-.665-.375-1.223-.836-1.62-1.531z"/></symbol><symbol id="icon-shopping_cart" viewBox="0 0 38 32"><path d="M37.815 7.814h.002l-5.28 11.733c-.26.578-.823.99-1.487 1.035l-15.206 1.013.879 2.509H33.28a3.522 3.522 0 010 7.042 3.521 3.521 0 01-3.52-3.52H13.333a3.521 3.521 0 01-3.52 3.52 3.521 3.521 0 010-7.042h3.181L6.219 4.746H2.187a1.76 1.76 0 010-3.52h5.28c.768 0 1.414.495 1.655 1.18l.006-.002 1.024 2.929h26.061c.973 0 1.76.787 1.76 1.76 0 .256-.058.499-.158.721zM11.386 8.853l3.253 9.295 15.123-1.009 3.729-8.286H11.385z"/></symbol><symbol id="icon-symbol-defs" viewBox="0 0 32 32"><path fill="var(--color3, #fff)" d="M37.815 7.814h.002l-5.28 11.733c-.26.578-.823.99-1.487 1.035l-15.206 1.013.879 2.509H33.28a3.522 3.522 0 010 7.042 3.521 3.521 0 01-3.52-3.52H13.333a3.521 3.521 0 01-3.52 3.52 3.521 3.521 0 010-7.042h3.181L6.219 4.746H2.187a1.76 1.76 0 010-3.52h5.28c.768 0 1.414.495 1.655 1.18l.006-.002 1.024 2.929h26.061c.973 0 1.76.787 1.76 1.76 0 .256-.058.499-.158.721zM11.386 8.853l3.253 9.295 15.123-1.009 3.729-8.286H11.385z"/></symbol><symbol id="icon-twitter" viewBox="0 0 38 32"><path d="M25.473.874c2.959-.052 4.534 1.025 6.038 2.396 1.277-.109 2.937-.822 3.914-1.319l.95-.519c-.559 1.508-1.315 2.689-2.479 3.587-.259.198-.515.467-.839.593v.019c1.658-.016 3.025-.765 4.324-1.171v.019c-.682 1.084-1.606 2.185-2.591 2.973l-1.193.947c.022 1.756-.026 3.431-.353 4.906-1.908 8.575-6.964 14.396-14.966 16.89-2.874.895-7.517 1.263-10.81.445-1.632-.404-3.107-.863-4.49-1.468-.769-.336-1.482-.7-2.163-1.116l-.671-.407c.742.022 1.612.227 2.441.092.752-.121 1.488-.089 2.182-.24 1.728-.38 3.263-.881 4.583-1.655.641-.375 1.615-.815 2.07-1.356-.858.015-1.636-.185-2.273-.409-2.471-.873-3.91-2.477-4.847-4.887.749.083 2.906.278 3.411-.148-.943-.052-1.849-.598-2.497-1.004-1.988-1.244-3.609-3.329-3.597-6.54l.783.371c.5.211 1.008.323 1.603.447.252.052.755.199 1.044.092h-.038c-.384-.447-1.011-.745-1.398-1.226-1.276-1.584-2.47-4.023-1.715-6.929.192-.737.496-1.388.82-1.988l.038.017c.148.311.48.54.689.8.652.807 1.455 1.533 2.273 2.173 2.79 2.182 5.302 3.523 9.337 4.515 1.024.253 2.207.445 3.43.447-.343-.999-.233-2.618.036-3.585.681-2.435 2.157-4.188 4.324-5.129a9.364 9.364 0 011.696-.521c.311-.036.621-.074.932-.111z"/></symbol></defs></svg>